<mxfile host="app.diagrams.net" modified="2023-08-23T03:55:22.122Z" agent="Mozilla/5.0 (Windows NT 10.0; Win64; x64) AppleWebKit/537.36 (KHTML, like Gecko) Chrome/115.0.0.0 Safari/537.36" version="21.6.8" etag="wRfCpZY7KDpptwnRKQXg" type="github">
  <diagram name="Page-1" id="otvGpGMsonCqWi5VY_4m">
    <mxGraphModel>
      <root>
        <mxCell id="0" />
        <mxCell id="1" parent="0" />
      </root>
    </mxGraphModel>
  </diagram>
</mxfile>
